# xmcd CD database file
#
# Track frame offsets:
#	150
#	12015
#	29343
#	45863
#	56575
#	71423
#	82625
#	95653
#	107170
#	120148
#	133533
#	148215
#	160768
#	174368
#
# Disc length: 2542 seconds
#
# Revision: 0
# Processed by: cddbd v1.5.1PL0 Copyright (c) Steve Scherf et al.
# Submitted via: CDex 1.51
#
DISCID=a309ec0e
DTITLE=Various Artist - SOUL MUSIC
DYEAR=1900
DGENRE=Pop
TTITLE0=BABY LOVE／Diana Ross and The Supremes
TTITLE1=Try A Little Tenderness／Otisredding
TTITLE2=Unchained Melody／The Righteous Brothers
TTITLE3=If I Could Build My Whole World Around You／Marvin Gaye
TTITLE4=It's a Man's World／James Brown
TTITLE5=Respect／Aretha Franlin
TTITLE6=Stop it in the Name of Love／Diana Ross and The Supremes
TTITLE7=Try Me／James Brown
TTITLE8=Unchain My Heart／Ray Charles
TTITLE9=Reach  Out I'll Be There／Four Tops
TTITLE10=I've Been Loving You too Long／Otis Redding
TTITLE11=You Send Me／Sam Cooke
TTITLE12=Spanish Harlem／Ben E King
TTITLE13=Gergia On My Mind／Ray Charles
EXTD=
EXTT0=
EXTT1=
EXTT2=
EXTT3=
EXTT4=
EXTT5=
EXTT6=
EXTT7=
EXTT8=
EXTT9=
EXTT10=
EXTT11=
EXTT12=
EXTT13=
PLAYORDER=
